<mxfile host="app.diagrams.net" modified="2023-04-17T15:13:49.651Z" agent="Mozilla/5.0 (Windows NT 10.0; Win64; x64) AppleWebKit/537.36 (KHTML, like Gecko) Chrome/112.0.0.0 Safari/537.36" version="21.1.7" etag="vFlyS9FI6uw3hbwbxhov" type="github">
  <diagram name="Страница 1" id="SHFDNxqW3S3rb4C-BOvr">
    <mxGraphModel>
      <root>
        <mxCell id="0" />
        <mxCell id="1" parent="0" />
      </root>
    </mxGraphModel>
  </diagram>
</mxfile>
